<?xml version="1.0" encoding="utf-8"?>
<!-- Generator: Adobe Illustrator 21.1.0, SVG Export Plug-In . SVG Version: 6.00 Build 0)  -->
<svg version="1.1" id="Arrow_1_" xmlns="http://www.w3.org/2000/svg" xmlns:xlink="http://www.w3.org/1999/xlink" x="0px" y="0px"
	 viewBox="0 0 500 500" style="enable-background:new 0 0 500 500;" xml:space="preserve">
<style type="text/css">
	.st0{fill:#583FFF;}
</style>
<path class="st0" d="M419.1,0H80.9C36.2,0,0,36.2,0,80.9V419c0,44.8,36.2,81,80.9,81H419c44.7,0,80.9-36.2,80.9-80.9V80.9
	C500,36.2,463.8,0,419.1,0z M321.8,247.8h-44.6v161.5h-66.8V247.8H177v-55.6h33.4v-33.4c0-45.4,18.8-72.4,72.4-72.4h44.6V142h-27.9
	c-20.9,0-22.2,7.8-22.2,22.3l-0.1,27.9h50.5L321.8,247.8z"/>
</svg>
